<?xml version="1.0" encoding="UTF-8" standalone="no"?>
<svg
   xmlns:dc="http://purl.org/dc/elements/1.1/"
   xmlns:cc="http://creativecommons.org/ns#"
   xmlns:rdf="http://www.w3.org/1999/02/22-rdf-syntax-ns#"
   xmlns:svg="http://www.w3.org/2000/svg"
   xmlns="http://www.w3.org/2000/svg"
   xmlns:sodipodi="http://sodipodi.sourceforge.net/DTD/sodipodi-0.dtd"
   xmlns:inkscape="http://www.inkscape.org/namespaces/inkscape"
   version="1.1"
   id="svg847"
   xml:space="preserve"
   width="479.62668"
   height="152.52"
   viewBox="0 0 479.62668 152.52"
   sodipodi:docname="suez_277251_mono_white.svg"
   inkscape:version="1.0.1 (3bc2e813f5, 2020-09-07)"><metadata
     id="metadata853"><rdf:RDF><cc:Work
         rdf:about=""><dc:format>image/svg+xml</dc:format><dc:type
           rdf:resource="http://purl.org/dc/dcmitype/StillImage" /><dc:title></dc:title></cc:Work></rdf:RDF></metadata><defs
     id="defs851" /><sodipodi:namedview
     pagecolor="#ffffff"
     bordercolor="#666666"
     borderopacity="1"
     objecttolerance="10"
     gridtolerance="10"
     guidetolerance="10"
     inkscape:pageopacity="0"
     inkscape:pageshadow="2"
     inkscape:window-width="2400"
     inkscape:window-height="1271"
     id="namedview849"
     showgrid="false"
     inkscape:zoom="2.5686645"
     inkscape:cx="239.81334"
     inkscape:cy="76.260002"
     inkscape:window-x="2391"
     inkscape:window-y="-9"
     inkscape:window-maximized="1"
     inkscape:current-layer="g855" /><g
     id="g855"
     inkscape:groupmode="layer"
     inkscape:label="ink_ext_XXXXXX"
     transform="matrix(1.3333333,0,0,-1.3333333,0,152.52)"><g
       id="g857"
       transform="scale(0.1)"><path
         d="m 1436.53,815.961 c -66.8,66.816 -155.63,103.621 -250.12,103.621 -112.33,0 -219.144,-54.363 -285.597,-145.281 0,0 -179.133,-223.985 -188.024,-235.254 -8.887,-11.27 -21.91,-17.129 -34.738,-17.129 -24.235,0 -43.953,19.707 -43.953,43.934 0,24.23 19.718,43.937 43.953,43.937 4.543,0 7.988,-0.488 11.679,-0.488 15.403,0 27.891,13.164 27.891,28.359 0,11.844 -8.191,29.57 -36.055,29.57 -59.668,0 -104.437,-45.722 -104.437,-101.378 0,-55.633 45.273,-100.903 100.922,-100.922 28.367,0 55.301,11.922 74.422,32.828 L 958.93,742.277 c 55.15,70.95 138.06,111.641 227.48,111.641 76.95,0 149.29,-29.961 203.71,-84.363 54.4,-54.414 84.36,-126.758 84.36,-203.703 0,-158.832 -129.26,-288.051 -288.13,-288.051 -45.04,0 -59.84,8.222 -70.88,8.222 -18.7,0 -33.58,-14.707 -33.58,-33.085 0,-13.723 8.14,-25.372 21.4,-30.743 11.35,-4.609 55.35,-10.05 83.12,-10.05 195.04,0 353.71,158.671 353.71,353.707 0,94.492 -36.79,183.312 -103.59,250.109 z M 1186.38,394.93 c -27,0 -38.51,5.644 -47.83,5.644 -18.09,0 -32.81,-14.726 -32.81,-32.832 0,-13.996 9.65,-27.246 22.33,-31.074 12.67,-3.82 35.54,-7.402 58.32,-7.402 130.46,0 236.62,106.132 236.62,236.586 0,130.461 -106.14,236.601 -236.6,236.613 -63.81,0 -125.65,-26.36 -170.12,-72.402 L 778.113,465.438 c -26.797,-26.719 -62.336,-41.426 -100.062,-41.426 -78.215,0 -141.84,63.633 -141.84,141.84 0,78.214 63.656,141.847 141.91,141.847 18.27,0 23.981,-3.457 31.766,-3.457 13.613,0 27.687,11.621 27.687,28.477 0,13.535 -9.433,25.664 -22.23,28.437 -10.153,2.207 -25.231,3.535 -37.317,3.535 -109.625,0 -198.804,-89.199 -198.804,-198.839 0,-109.633 89.195,-198.832 198.828,-198.832 90.051,0 139.863,57.675 147.812,65.906 l 232.547,246.062 c 32.51,36.739 79.16,57.813 128,57.813 94.25,0 170.94,-76.699 170.94,-170.949 0,-94.243 -76.7,-170.922 -170.97,-170.922 z m 0.03,224.761 c 29.68,0 53.83,-24.16 53.83,-53.839 0,-29.676 -24.15,-53.817 -53.83,-53.817 -4.03,0 -12.51,1.485 -12.67,1.524 -2.75,0.625 -15.28,3.183 -24.14,-0.352 -11.99,-4.875 -20.47,-16.691 -20.47,-30.445 0,-13.164 9.68,-26.426 20.1,-30.254 10.43,-3.828 25.62,-6.113 37.18,-6.113 65.88,0 119.48,53.589 119.48,119.457 0,65.89 -53.6,119.484 -119.48,119.484 -32.84,0 -64.58,-13.781 -86.99,-37.676 0,0 -210.92,-216.734 -260.69,-259.527 -44.277,-38.067 -97.757,-62.031 -160.703,-62.031 -64.039,0 -124.242,24.941 -169.519,70.214 -45.281,45.293 -70.223,105.504 -70.223,169.536 0,132.199 107.57,239.738 239.778,239.738 25.535,0 42.839,-4.707 49.613,-5.07 16.519,-0.887 29.965,12.695 29.965,28.41 0,13.718 -10.051,25.879 -23.395,28.289 0,0 -25.793,5.363 -56.242,5.363 -163.606,0 -296.711,-133.105 -296.711,-296.73 0,-79.243 30.863,-153.754 86.914,-209.809 56.039,-56.055 130.559,-86.934 209.82,-86.934 76.844,0 149.336,29.168 204.844,82.286 l 265.369,251.832 c 10.73,10.164 21.4,16.464 38.17,16.464"
         style="fill:#ffffff;fill-opacity:1;fill-rule:nonzero;stroke:none"
         id="path859" /><path
         d="m 2532.18,607.68 c 14.38,52.773 60.02,91.347 114.1,91.347 54.09,0 99.73,-38.574 114.12,-91.347 z m 114.16,159.91 c -109.98,0 -196.95,-87.617 -196.95,-195.672 0,-108.043 86.98,-195.66 196.95,-195.66 68.07,0 123.44,28.23 163.54,76.191 l -61.23,43.629 c -27.88,-32.359 -61.59,-50.75 -102.34,-50.75 -56.71,0 -104.15,42.391 -116,99.098 h 306.95 c 1.17,8.594 1.95,18.586 1.95,27.492 0,108.008 -82.87,195.672 -192.87,195.672 z M 2308.96,534.926 c 0.21,-57.77 -34.79,-87.586 -88.42,-87.586 -53.62,0 -88.62,29.816 -88.41,87.586 V 762.57 h -80.05 V 529.574 c 0,-85.23 61.67,-153.316 168.46,-153.316 106.82,0 168.48,68.086 168.48,153.316 V 762.57 h -80.06 z m 664.72,-80.094 c -13.83,0 -25.03,11.199 -25.03,25.02 0,10.679 6.62,19.964 16.13,23.394 l 187.46,68.652 c 37.05,14.18 63.37,50.059 63.37,92.11 0,54.433 -44.13,98.562 -98.56,98.562 h -205.57 v -73.543 h 203.49 c 13.81,0 25.03,-11.211 25.03,-25.019 0,-10.684 -6.72,-19.805 -16.14,-23.399 L 2936.4,571.945 c -37.05,-14.168 -65.45,-50.047 -65.45,-92.093 0,-54.434 46.2,-98.567 100.65,-98.567 h 244.33 v 73.547 z M 1936.26,571.945 1748.8,640.609 c -9.41,3.594 -16.12,12.715 -16.12,23.399 0,13.808 11.2,25.019 25.02,25.019 h 203.49 v 73.543 h -205.57 c -54.44,0 -98.57,-44.129 -98.57,-98.562 0,-42.051 26.32,-77.93 63.38,-92.11 l 187.46,-68.652 c 9.51,-3.43 16.13,-12.715 16.13,-23.394 0,-13.821 -11.2,-25.02 -25.03,-25.02 h -242.27 v -73.547 h 244.36 c 54.43,0 100.63,44.133 100.63,98.567 0,42.046 -28.39,77.925 -65.45,92.093"
         style="fill:#ffffff;fill-opacity:1;fill-rule:nonzero;stroke:none"
         id="path861" /></g></g></svg>
